PathFileType	4	(X/Y/Z)	D:\telocate\uwb03-Unnamed.trc
DataRate	CameraRate	NumFrames	NumMarkers	Units	OrigDataRate	OrigDataStartFrame	OrigNumFrames
100.00	100.00	      85	0	mm	100.00	4985	      9968
Frame#	Time	
		

4985	49.840	-1789.76282	2063.12012	1183.09375	
4986	49.850	-1789.78540	2063.20142	1182.52124	
4987	49.860	-1790.24268	2063.15601	1182.57104	
4988	49.870	-1791.16589	2063.18042	1182.72278	
4989	49.880	-1791.53467	2063.00146	1182.63074	
4990	49.890	-1791.80481	2062.87280	1182.66187	
4991	49.900	-1792.16736	2062.80933	1182.47864	
4992	49.910	-1792.88062	2062.84204	1182.47803	
4993	49.920	-1793.17395	2062.86792	1182.57898	
4994	49.930	-1793.54382	2062.89624	1182.53186	
4995	49.940	-1793.94788	2062.81421	1182.55103	
4996	49.950	-1794.40515	2062.96387	1182.27979	
4997	49.960	-1794.58496	2062.95239	1182.34436	
4998	49.970	-1794.76868	2062.91162	1182.27661	
4999	49.980	-1794.81934	2063.04102	1182.22070	
5000	49.990	-1794.80310	2063.24219	1182.24866	
5001	50.000	-1794.75891	2063.39404	1182.04248	
5002	50.010	-1794.68811	2063.46484	1182.08057	
5003	50.020	-1794.48840	2063.34644	1182.23682	
5004	50.030	-1794.39868	2063.12939	1182.32397	
5005	50.040	-1794.40955	2062.94336	1182.43347	
5006	50.050	-1794.32349	2062.50195	1182.51196	
5007	50.060	-1794.44824	2062.25000	1182.43860	
5008	50.070	-1794.18152	2062.16553	1182.43726	
5009	50.080	-1793.32227	2062.06641	1182.52393	
5010	50.090	-1792.18896	2062.18677	1182.68982	
5011	50.100	-1791.25928	2061.88525	1182.89502	
5012	50.110	-1790.35645	2061.64014	1183.10303	
5013	50.120	-1789.33655	2061.02100	1183.16492	
5014	50.130	-1788.67566	2060.73926	1183.24365	
5015	50.140	-1788.16565	2060.68188	1183.01489	
5016	50.150	-1787.93555	2060.64697	1183.01868	
5017	50.160	-1787.84534	2060.59448	1183.00623	
5018	50.170	-1787.28882	2060.57520	1183.39014	
5019	50.180	-1787.01172	2060.12305	1183.45715	
5020	50.190	-1786.59497	2059.71289	1183.72607	
5021	50.200	-1785.81885	2059.15967	1183.83643	
5022	50.210	-1784.55066	2058.31470	1183.44946	
5023	50.220	-1783.57019	2058.17310	1183.80212	
5024	50.230	-1783.04932	2058.10107	1184.16992	
5025	50.240	-1782.67114	2057.67505	1183.93958	
5026	50.250	-1781.78198	2057.74463	1183.07642	
5027	50.260	-1781.32825	2057.72925	1183.52441	
5028	50.270	-1780.78406	2057.77563	1183.78259	
5029	50.280	-1780.65552	2057.78467	1183.96106	
5030	50.290	-1780.47351	2057.49927	1183.89673	
5031	50.300	-1780.23816	2057.11426	1183.93738	
5032	50.310	-1780.31189	2056.64868	1183.79297	
5033	50.320	-1780.15723	2056.25806	1183.82996	
5034	50.330	-1779.87683	2055.83179	1183.92358	
5035	50.340	-1779.83228	2055.41309	1184.05884	
5036	50.350	-1777.96582	2054.38550	1183.81848	
5037	50.360	-1778.07947	2053.40479	1183.66687	
5038	50.370	-1777.93750	2053.14136	1183.74121	
5039	50.380	-1777.84741	2052.98682	1183.71753	
5040	50.390	-1777.74866	2052.92261	1183.70276	
5041	50.400	-1777.34460	2052.72437	1183.80298	
5042	50.410	-1779.55664	2055.54932	1187.94971	
5043	50.420	-1779.35229	2055.32959	1187.97083	
5044	50.430	-1779.23975	2054.82788	1188.16333	
5045	50.440	-1778.60193	2054.44116	1188.29028	
5046	50.450	-1773.61755	2050.03149	1183.77588	
5047	50.460	-1773.23560	2049.68213	1183.90503	
5048	50.470	-1774.94238	2050.05493	1184.44507	
5049	50.480	-1774.63379	2049.82690	1184.46814	
5050	50.490	-1774.46521	2049.68652	1184.51086	
5051	50.500	-1773.90686	2049.19531	1184.29736	
5052	50.510	-1773.53137	2048.95801	1184.49414	
5053	50.520	-1771.14807	2047.88831	1184.08691	
5054	50.530	-1770.96582	2047.24292	1184.01953	
5055	50.540	-1770.48889	2046.69531	1184.08484	
5056	50.550	-1770.43445	2046.24377	1184.29456	
5057	50.560	-1770.01624	2045.56409	1184.42517	
5058	50.570	-1769.81921	2044.96216	1184.19653	
5059	50.580	-1769.51001	2044.30627	1184.27441	
5060	50.590	-1769.32727	2042.75452	1183.97339	
5061	50.600	-1768.87549	2041.95703	1184.15735	
5062	50.610	-1767.99463	2040.86304	1184.38855	
5063	50.620	-1766.56995	2039.76868	1184.58716	
5064	50.630	-1766.26575	2038.64282	1184.79614	
5065	50.640	-1765.12732	2037.55627	1184.50549	
5066	50.650	-1764.91406	2037.16016	1184.89661	
5067	50.660	-1764.30029	2035.83508	1184.68823	
5068	50.670	-1764.30615	2034.51575	1185.00244	
5069	50.680	-1763.78113	2032.83459	1184.75037	
